G04 (created by PCBNEW (2013-07-07 BZR 4022)-stable) date 22/01/2014 05:32:29*
%MOIN*%
G04 Gerber Fmt 3.4, Leading zero omitted, Abs format*
%FSLAX34Y34*%
G01*
G70*
G90*
G04 APERTURE LIST*
%ADD10C,0.00590551*%
%ADD11C,0.137795*%
%ADD12C,0.11811*%
%ADD13C,0.0472441*%
%ADD14R,0.08X0.06*%
%ADD15R,0.045X0.025*%
%ADD16R,0.025X0.045*%
%ADD17R,0.02X0.012*%
%ADD18C,0.0669*%
%ADD19R,0.0433071X0.11811*%
%ADD20R,0.02X0.0591*%
%ADD21C,0.035*%
%ADD22C,0.008*%
%ADD23C,0.01*%
G04 APERTURE END LIST*
G54D10*
G54D11*
X31252Y-31165D03*
X36449Y-31165D03*
G54D12*
X38582Y-32283D03*
G54D13*
X32851Y-34965D03*
X34851Y-34965D03*
G54D14*
X33101Y-31615D03*
X33101Y-32915D03*
X34601Y-32915D03*
X34601Y-31615D03*
G54D15*
X32601Y-33715D03*
X32601Y-34315D03*
X35101Y-33715D03*
X35101Y-34315D03*
G54D16*
X34901Y-30515D03*
X34301Y-30515D03*
X33401Y-30515D03*
X32801Y-30515D03*
G54D17*
X33451Y-33765D03*
X33451Y-34265D03*
X34251Y-33765D03*
X33451Y-34015D03*
X34251Y-34265D03*
G54D11*
X28188Y-33464D03*
X22992Y-33464D03*
G54D12*
X20472Y-32283D03*
G54D18*
X22125Y-32208D03*
X21968Y-31208D03*
X21968Y-30208D03*
X22125Y-29208D03*
G54D13*
X27377Y-29527D03*
X25377Y-29527D03*
G54D19*
X24527Y-33425D03*
X25196Y-33425D03*
X25866Y-33425D03*
X25866Y-31141D03*
X25196Y-31141D03*
X24527Y-31141D03*
G54D15*
X22992Y-30920D03*
X22992Y-31520D03*
X22992Y-29188D03*
X22992Y-29788D03*
X24527Y-34424D03*
X24527Y-35024D03*
X25196Y-34424D03*
X25196Y-35024D03*
X25866Y-34424D03*
X25866Y-35024D03*
G54D20*
X27202Y-28868D03*
X27702Y-28868D03*
X28202Y-28868D03*
X28702Y-28868D03*
X28702Y-31368D03*
X28202Y-31368D03*
X27702Y-31368D03*
X27202Y-31368D03*
X27202Y-20206D03*
X27702Y-20206D03*
X28202Y-20206D03*
X28702Y-20206D03*
X28702Y-22706D03*
X28202Y-22706D03*
X27702Y-22706D03*
X27202Y-22706D03*
G54D15*
X25866Y-25762D03*
X25866Y-26362D03*
X25196Y-25762D03*
X25196Y-26362D03*
X24527Y-25762D03*
X24527Y-26362D03*
X22992Y-20526D03*
X22992Y-21126D03*
X22992Y-22259D03*
X22992Y-22859D03*
G54D19*
X24527Y-24763D03*
X25196Y-24763D03*
X25866Y-24763D03*
X25866Y-22480D03*
X25196Y-22480D03*
X24527Y-22480D03*
G54D13*
X27377Y-20866D03*
X25377Y-20866D03*
G54D18*
X22125Y-23547D03*
X21968Y-22547D03*
X21968Y-21547D03*
X22125Y-20547D03*
G54D12*
X20472Y-23622D03*
G54D11*
X28188Y-24803D03*
X22992Y-24803D03*
G54D17*
X33451Y-25104D03*
X33451Y-25604D03*
X34251Y-25104D03*
X33451Y-25354D03*
X34251Y-25604D03*
G54D16*
X33401Y-21854D03*
X32801Y-21854D03*
X34901Y-21854D03*
X34301Y-21854D03*
G54D15*
X35101Y-25054D03*
X35101Y-25654D03*
X32601Y-25054D03*
X32601Y-25654D03*
G54D14*
X34601Y-24254D03*
X34601Y-22954D03*
X33101Y-22954D03*
X33101Y-24254D03*
G54D13*
X32851Y-26304D03*
X34851Y-26304D03*
G54D12*
X38582Y-23622D03*
G54D11*
X31252Y-22504D03*
X36449Y-22504D03*
G54D21*
X32201Y-32015D03*
X23622Y-31515D03*
X23622Y-29074D03*
X23622Y-20413D03*
X23622Y-22854D03*
X32201Y-23354D03*
X28706Y-32450D03*
X28706Y-23788D03*
X31251Y-32165D03*
X31251Y-23504D03*
X35051Y-32915D03*
X26594Y-31377D03*
X26594Y-22716D03*
X35051Y-24254D03*
G54D22*
X32651Y-34265D02*
X32601Y-34315D01*
X32651Y-34265D02*
X32601Y-34315D01*
X33451Y-34265D02*
X32651Y-34265D01*
X32201Y-34315D02*
X31951Y-34065D01*
X31951Y-32915D02*
X31951Y-32265D01*
X31951Y-34065D02*
X31951Y-32915D01*
X31951Y-32265D02*
X32201Y-32015D01*
X32601Y-34315D02*
X32201Y-34315D01*
X33101Y-32915D02*
X31951Y-32915D01*
G54D23*
X25196Y-31141D02*
X25866Y-31141D01*
X24527Y-31141D02*
X25196Y-31141D01*
X23622Y-31515D02*
X23617Y-31520D01*
X23617Y-31520D02*
X22992Y-31520D01*
X23828Y-28868D02*
X23622Y-29074D01*
X27202Y-28868D02*
X23828Y-28868D01*
X23996Y-31141D02*
X23622Y-31515D01*
X24527Y-31141D02*
X23996Y-31141D01*
X24527Y-22480D02*
X23996Y-22480D01*
X23996Y-22480D02*
X23622Y-22854D01*
X27202Y-20206D02*
X23828Y-20206D01*
X23828Y-20206D02*
X23622Y-20413D01*
X23617Y-22859D02*
X22992Y-22859D01*
X23622Y-22854D02*
X23617Y-22859D01*
X24527Y-22480D02*
X25196Y-22480D01*
X25196Y-22480D02*
X25866Y-22480D01*
G54D22*
X33101Y-24254D02*
X31951Y-24254D01*
X32601Y-25654D02*
X32201Y-25654D01*
X31951Y-23604D02*
X32201Y-23354D01*
X31951Y-25404D02*
X31951Y-24254D01*
X31951Y-24254D02*
X31951Y-23604D01*
X32201Y-25654D02*
X31951Y-25404D01*
X33451Y-25604D02*
X32651Y-25604D01*
X32651Y-25604D02*
X32601Y-25654D01*
X32651Y-25604D02*
X32601Y-25654D01*
X32801Y-31315D02*
X33101Y-31615D01*
X32801Y-30515D02*
X32801Y-31315D01*
X32801Y-21854D02*
X32801Y-22654D01*
X32801Y-22654D02*
X33101Y-22954D01*
G54D23*
X28702Y-31887D02*
X28543Y-32047D01*
X28543Y-32047D02*
X28346Y-32047D01*
X28346Y-32047D02*
X26811Y-33582D01*
X24527Y-35196D02*
X24527Y-35024D01*
X26811Y-35078D02*
X26811Y-33582D01*
X26338Y-35551D02*
X26811Y-35078D01*
X24881Y-35551D02*
X26338Y-35551D01*
X24527Y-35196D02*
X24881Y-35551D01*
X28702Y-31368D02*
X28702Y-31887D01*
X28702Y-22706D02*
X28702Y-23226D01*
X24527Y-26535D02*
X24881Y-26889D01*
X24881Y-26889D02*
X26338Y-26889D01*
X26338Y-26889D02*
X26811Y-26417D01*
X26811Y-26417D02*
X26811Y-24921D01*
X24527Y-26535D02*
X24527Y-26362D01*
X28346Y-23385D02*
X26811Y-24921D01*
X28543Y-23385D02*
X28346Y-23385D01*
X28702Y-23226D02*
X28543Y-23385D01*
X28202Y-31836D02*
X26574Y-33464D01*
X25196Y-35196D02*
X25314Y-35314D01*
X25314Y-35314D02*
X26220Y-35314D01*
X26220Y-35314D02*
X26574Y-34960D01*
X26574Y-34960D02*
X26574Y-33464D01*
X25196Y-35196D02*
X25196Y-35024D01*
X28202Y-31368D02*
X28202Y-31836D01*
X28202Y-22706D02*
X28202Y-23175D01*
X25196Y-26535D02*
X25196Y-26362D01*
X26574Y-26299D02*
X26574Y-24803D01*
X26220Y-26653D02*
X26574Y-26299D01*
X25314Y-26653D02*
X26220Y-26653D01*
X25196Y-26535D02*
X25314Y-26653D01*
X28202Y-23175D02*
X26574Y-24803D01*
X27702Y-31982D02*
X26338Y-33346D01*
X26156Y-35024D02*
X25866Y-35024D01*
X26338Y-34842D02*
X26338Y-33346D01*
X26156Y-35024D02*
X26338Y-34842D01*
X27702Y-31368D02*
X27702Y-31982D01*
X27702Y-22706D02*
X27702Y-23320D01*
X26156Y-26362D02*
X26338Y-26181D01*
X26338Y-26181D02*
X26338Y-24685D01*
X26156Y-26362D02*
X25866Y-26362D01*
X27702Y-23320D02*
X26338Y-24685D01*
G54D22*
X34901Y-31315D02*
X34601Y-31615D01*
X34901Y-30515D02*
X34901Y-31315D01*
G54D23*
X28706Y-32450D02*
X28706Y-32946D01*
X28706Y-32946D02*
X28188Y-33464D01*
X28706Y-24285D02*
X28188Y-24803D01*
X28706Y-23788D02*
X28706Y-24285D01*
G54D22*
X34901Y-21854D02*
X34901Y-22654D01*
X34901Y-22654D02*
X34601Y-22954D01*
X35051Y-34265D02*
X35101Y-34315D01*
X34251Y-34265D02*
X35051Y-34265D01*
X33851Y-30515D02*
X34301Y-30515D01*
X33401Y-30515D02*
X33851Y-30515D01*
X35251Y-34315D02*
X35551Y-34015D01*
X35551Y-34015D02*
X35551Y-30365D01*
X35551Y-30365D02*
X35151Y-29965D01*
X35151Y-29965D02*
X34101Y-29965D01*
X34101Y-29965D02*
X33851Y-30215D01*
X33851Y-30215D02*
X33851Y-30515D01*
X35101Y-34315D02*
X35251Y-34315D01*
G54D23*
X21476Y-31559D02*
X22125Y-32208D01*
X27702Y-28868D02*
X27702Y-29238D01*
X27702Y-29238D02*
X27834Y-29370D01*
X27834Y-29370D02*
X27834Y-29803D01*
X27834Y-29803D02*
X27677Y-29960D01*
X27677Y-29960D02*
X24015Y-29960D01*
X24015Y-29960D02*
X23543Y-29488D01*
X23543Y-29488D02*
X22598Y-29488D01*
X22598Y-29488D02*
X22381Y-29704D01*
X22381Y-29704D02*
X21771Y-29704D01*
X21771Y-29704D02*
X21476Y-30000D01*
X21476Y-30000D02*
X21476Y-31559D01*
X21476Y-21338D02*
X21476Y-22897D01*
X21771Y-21043D02*
X21476Y-21338D01*
X22381Y-21043D02*
X21771Y-21043D01*
X22598Y-20826D02*
X22381Y-21043D01*
X23543Y-20826D02*
X22598Y-20826D01*
X24015Y-21299D02*
X23543Y-20826D01*
X27677Y-21299D02*
X24015Y-21299D01*
X27834Y-21141D02*
X27677Y-21299D01*
X27834Y-20708D02*
X27834Y-21141D01*
X27702Y-20576D02*
X27834Y-20708D01*
X27702Y-20206D02*
X27702Y-20576D01*
X21476Y-22897D02*
X22125Y-23547D01*
G54D22*
X35101Y-25654D02*
X35251Y-25654D01*
X33851Y-21554D02*
X33851Y-21854D01*
X34101Y-21304D02*
X33851Y-21554D01*
X35151Y-21304D02*
X34101Y-21304D01*
X35551Y-21704D02*
X35151Y-21304D01*
X35551Y-25354D02*
X35551Y-21704D01*
X35251Y-25654D02*
X35551Y-25354D01*
X33401Y-21854D02*
X33851Y-21854D01*
X33851Y-21854D02*
X34301Y-21854D01*
X34251Y-25604D02*
X35051Y-25604D01*
X35051Y-25604D02*
X35101Y-25654D01*
X32901Y-34015D02*
X32601Y-33715D01*
X33451Y-34015D02*
X32901Y-34015D01*
X34801Y-34015D02*
X35101Y-33715D01*
X33451Y-34015D02*
X34801Y-34015D01*
G54D23*
X22992Y-30250D02*
X22992Y-30920D01*
X22992Y-30196D02*
X22992Y-30250D01*
X22992Y-29788D02*
X22992Y-30196D01*
X28202Y-29854D02*
X27806Y-30250D01*
X27806Y-30250D02*
X22992Y-30250D01*
X28202Y-28868D02*
X28202Y-29854D01*
X22703Y-31208D02*
X22992Y-30920D01*
X21968Y-31208D02*
X22703Y-31208D01*
X21968Y-22547D02*
X22703Y-22547D01*
X22703Y-22547D02*
X22992Y-22259D01*
X28202Y-20206D02*
X28202Y-21192D01*
X27806Y-21588D02*
X22992Y-21588D01*
X28202Y-21192D02*
X27806Y-21588D01*
X22992Y-21126D02*
X22992Y-21535D01*
X22992Y-21535D02*
X22992Y-21588D01*
X22992Y-21588D02*
X22992Y-22259D01*
G54D22*
X33451Y-25354D02*
X34801Y-25354D01*
X34801Y-25354D02*
X35101Y-25054D01*
X33451Y-25354D02*
X32901Y-25354D01*
X32901Y-25354D02*
X32601Y-25054D01*
G54D23*
X25866Y-33425D02*
X25866Y-34424D01*
X25866Y-24763D02*
X25866Y-25762D01*
X25196Y-33425D02*
X25196Y-34424D01*
X25196Y-24763D02*
X25196Y-25762D01*
G54D22*
X31251Y-32165D02*
X31252Y-32163D01*
X31252Y-32163D02*
X31252Y-31165D01*
G54D23*
X24527Y-33425D02*
X24527Y-34424D01*
X24527Y-24763D02*
X24527Y-25762D01*
G54D22*
X31252Y-23502D02*
X31252Y-22504D01*
X31251Y-23504D02*
X31252Y-23502D01*
X34251Y-33265D02*
X34601Y-32915D01*
X34251Y-33765D02*
X34251Y-33265D01*
X35051Y-32915D02*
X34601Y-32915D01*
G54D23*
X22971Y-29208D02*
X22992Y-29188D01*
X22047Y-29208D02*
X22971Y-29208D01*
X27192Y-31377D02*
X26594Y-31377D01*
X27202Y-31368D02*
X27192Y-31377D01*
X27202Y-22706D02*
X27192Y-22716D01*
X27192Y-22716D02*
X26594Y-22716D01*
X22047Y-20547D02*
X22971Y-20547D01*
X22971Y-20547D02*
X22992Y-20526D01*
G54D22*
X35051Y-24254D02*
X34601Y-24254D01*
X34251Y-25104D02*
X34251Y-24604D01*
X34251Y-24604D02*
X34601Y-24254D01*
M02*
