G04 (created by PCBNEW (2013-07-07 BZR 4022)-stable) date 22/01/2014 05:32:29*
%MOIN*%
G04 Gerber Fmt 3.4, Leading zero omitted, Abs format*
%FSLAX34Y34*%
G01*
G70*
G90*
G04 APERTURE LIST*
%ADD10C,0.00590551*%
%ADD11C,0.015*%
G04 APERTURE END LIST*
G54D10*
G54D11*
X38582Y-31496D02*
X38188Y-31496D01*
X21259Y-24803D02*
X21259Y-31102D01*
X37795Y-33464D02*
X37795Y-36220D01*
X38188Y-33070D02*
G75*
G03X37795Y-33464I0J-393D01*
G74*
G01*
X38582Y-33070D02*
X38188Y-33070D01*
X38582Y-33070D02*
G75*
G03X39370Y-32283I0J787D01*
G74*
G01*
X39370Y-32283D02*
G75*
G03X38582Y-31496I-787J0D01*
G74*
G01*
X37795Y-31102D02*
G75*
G03X38188Y-31496I393J0D01*
G74*
G01*
X37795Y-24803D02*
X37795Y-31102D01*
X38582Y-22834D02*
X38188Y-22834D01*
X38582Y-24409D02*
X38188Y-24409D01*
X38188Y-24409D02*
G75*
G03X37795Y-24803I0J-393D01*
G74*
G01*
X38582Y-24409D02*
G75*
G03X39370Y-23622I0J787D01*
G74*
G01*
X39370Y-23622D02*
G75*
G03X38582Y-22834I-787J0D01*
G74*
G01*
X37795Y-22440D02*
G75*
G03X38188Y-22834I393J0D01*
G74*
G01*
X37795Y-19685D02*
X37795Y-22440D01*
X37795Y-36220D02*
X21259Y-36220D01*
X37795Y-19685D02*
X21259Y-19685D01*
X20472Y-31496D02*
G75*
G03X19685Y-32283I0J-787D01*
G74*
G01*
X19685Y-32283D02*
G75*
G03X20472Y-33070I787J0D01*
G74*
G01*
X20866Y-31496D02*
G75*
G03X21259Y-31102I0J393D01*
G74*
G01*
X21259Y-33464D02*
G75*
G03X20866Y-33070I-393J0D01*
G74*
G01*
X20472Y-33070D02*
X20866Y-33070D01*
X20472Y-31496D02*
X20866Y-31496D01*
X21259Y-33464D02*
X21259Y-36220D01*
X21259Y-19685D02*
X21259Y-22440D01*
X20472Y-22834D02*
X20866Y-22834D01*
X20472Y-24409D02*
X20866Y-24409D01*
X21259Y-24803D02*
G75*
G03X20866Y-24409I-393J0D01*
G74*
G01*
X20866Y-22834D02*
G75*
G03X21259Y-22440I0J393D01*
G74*
G01*
X19685Y-23622D02*
G75*
G03X20472Y-24409I787J0D01*
G74*
G01*
X20472Y-22834D02*
G75*
G03X19685Y-23622I0J-787D01*
G74*
G01*
M02*
