G04 (created by PCBNEW (2013-07-07 BZR 4022)-stable) date 22/01/2014 05:32:29*
%MOIN*%
G04 Gerber Fmt 3.4, Leading zero omitted, Abs format*
%FSLAX34Y34*%
G01*
G70*
G90*
G04 APERTURE LIST*
%ADD10C,0.00590551*%
%ADD11R,0.11811X0.11811*%
%ADD12C,0.11811*%
%ADD13C,0.0472441*%
%ADD14R,0.0354331X0.0515748*%
%ADD15R,0.0433071X0.0318898*%
%ADD16C,0.0669*%
%ADD17C,0.035*%
%ADD18C,0.008*%
%ADD19C,0.01*%
G04 APERTURE END LIST*
G54D10*
G54D11*
X33851Y-31165D03*
G54D12*
X38582Y-32283D03*
G54D13*
X32851Y-34965D03*
X34851Y-34965D03*
G54D14*
X35044Y-34245D03*
X34481Y-34245D03*
X33221Y-34245D03*
X32658Y-34245D03*
G54D15*
X35992Y-34520D03*
X35992Y-35410D03*
X31709Y-34520D03*
X31709Y-35410D03*
G54D11*
X25590Y-33464D03*
G54D12*
X20472Y-32283D03*
G54D16*
X22125Y-32208D03*
X21968Y-31208D03*
X21968Y-30208D03*
X22125Y-29208D03*
G54D13*
X27377Y-29527D03*
X25377Y-29527D03*
G54D14*
X25185Y-30248D03*
X25748Y-30248D03*
X27007Y-30248D03*
X27570Y-30248D03*
G54D15*
X24236Y-29972D03*
X24236Y-29082D03*
X28519Y-29972D03*
X28519Y-29082D03*
G54D13*
X27377Y-20866D03*
X25377Y-20866D03*
G54D14*
X25185Y-21586D03*
X25748Y-21586D03*
X27007Y-21586D03*
X27570Y-21586D03*
G54D15*
X24236Y-21311D03*
X24236Y-20421D03*
X28519Y-21311D03*
X28519Y-20421D03*
G54D16*
X22125Y-23547D03*
X21968Y-22547D03*
X21968Y-21547D03*
X22125Y-20547D03*
G54D12*
X20472Y-23622D03*
G54D11*
X25590Y-24803D03*
G54D13*
X32851Y-26304D03*
X34851Y-26304D03*
G54D14*
X35044Y-25583D03*
X34481Y-25583D03*
X33221Y-25583D03*
X32658Y-25583D03*
G54D15*
X35992Y-25859D03*
X35992Y-26748D03*
X31709Y-25859D03*
X31709Y-26748D03*
G54D12*
X38582Y-23622D03*
G54D11*
X33851Y-22504D03*
G54D17*
X32201Y-32015D03*
X23622Y-31515D03*
X23622Y-29074D03*
X23622Y-20413D03*
X23622Y-22854D03*
X32201Y-23354D03*
X28706Y-32450D03*
X28706Y-23788D03*
X31251Y-32165D03*
X31251Y-23504D03*
X35051Y-32915D03*
X26594Y-31377D03*
X26594Y-22716D03*
X35051Y-24254D03*
G54D18*
X32201Y-32015D02*
X33051Y-31165D01*
X33051Y-31165D02*
X33851Y-31165D01*
G54D19*
X23622Y-30208D02*
X23622Y-31515D01*
X23622Y-29074D02*
X23622Y-30208D01*
X23641Y-31515D02*
X25590Y-33464D01*
X23622Y-31515D02*
X23641Y-31515D01*
X21968Y-30208D02*
X23622Y-30208D01*
X21968Y-21547D02*
X23622Y-21547D01*
X23622Y-22854D02*
X23641Y-22854D01*
X23641Y-22854D02*
X25590Y-24803D01*
X23622Y-20413D02*
X23622Y-21547D01*
X23622Y-21547D02*
X23622Y-22854D01*
G54D18*
X33051Y-22504D02*
X33851Y-22504D01*
X32201Y-23354D02*
X33051Y-22504D01*
G54D19*
X27007Y-30751D02*
X28706Y-32450D01*
X27007Y-30248D02*
X27007Y-30751D01*
X27007Y-21586D02*
X27007Y-22090D01*
X27007Y-22090D02*
X28706Y-23788D01*
G54D18*
X33221Y-34135D02*
X31251Y-32165D01*
X33221Y-34245D02*
X33221Y-34135D01*
X33221Y-25583D02*
X33221Y-25474D01*
X33221Y-25474D02*
X31251Y-23504D01*
X35051Y-34237D02*
X35051Y-32915D01*
X35044Y-34245D02*
X35051Y-34237D01*
G54D19*
X26594Y-31377D02*
X25846Y-31377D01*
X25846Y-31377D02*
X25185Y-30716D01*
X25185Y-30716D02*
X25185Y-30248D01*
X25185Y-30066D02*
X24862Y-29744D01*
X24862Y-29744D02*
X24862Y-28937D01*
X24862Y-28937D02*
X24606Y-28681D01*
X24606Y-28681D02*
X22574Y-28681D01*
X22574Y-28681D02*
X22047Y-29208D01*
X25185Y-30248D02*
X25185Y-30066D01*
X25185Y-21586D02*
X25185Y-21405D01*
X22574Y-20019D02*
X22047Y-20547D01*
X24606Y-20019D02*
X22574Y-20019D01*
X24862Y-20275D02*
X24606Y-20019D01*
X24862Y-21082D02*
X24862Y-20275D01*
X25185Y-21405D02*
X24862Y-21082D01*
X25185Y-22055D02*
X25185Y-21586D01*
X25846Y-22716D02*
X25185Y-22055D01*
X26594Y-22716D02*
X25846Y-22716D01*
G54D18*
X35044Y-25583D02*
X35051Y-25576D01*
X35051Y-25576D02*
X35051Y-24254D01*
M02*
