M48
;DRILL file {Pcbnew (2013-07-07 BZR 4022)-stable} date 22/01/2014 05:32:31
;FORMAT={-:-/ absolute / inch / decimal}
FMAT,2
INCH,TZ
T1C0.025
T2C0.039
T3C0.047
T4C0.079
%
G90
G05
M72
T1
X2.3622Y-2.0413
X2.3622Y-2.2854
X2.3622Y-2.9075
X2.3622Y-3.1516
X2.6594Y-2.2717
X2.6594Y-3.1378
X2.8707Y-2.3789
X2.8707Y-3.245
X3.1251Y-2.3504
X3.1251Y-3.2165
X3.2201Y-2.3354
X3.2201Y-3.2015
X3.5051Y-2.4254
X3.5051Y-3.2915
T2
X2.1969Y-2.1547
X2.1969Y-2.2547
X2.1969Y-3.0209
X2.1969Y-3.1209
X2.2126Y-2.0547
X2.2126Y-2.3547
X2.2126Y-2.9209
X2.2126Y-3.2209
T3
X2.5378Y-2.0866
X2.5378Y-2.9528
X2.7378Y-2.0866
X2.7378Y-2.9528
X3.2851Y-2.6304
X3.2851Y-3.4965
X3.4851Y-2.6304
X3.4851Y-3.4965
T4
X2.0472Y-2.3622
X2.0472Y-3.2283
X2.2992Y-2.4803
X2.2992Y-3.3465
X2.8189Y-2.4803
X2.8189Y-3.3465
X3.1253Y-2.2504
X3.1253Y-3.1165
X3.645Y-2.2504
X3.645Y-3.1165
X3.8583Y-2.3622
X3.8583Y-3.2283
T0
M30
