G04 (created by PCBNEW (2013-07-07 BZR 4022)-stable) date 22/01/2014 05:32:29*
%MOIN*%
G04 Gerber Fmt 3.4, Leading zero omitted, Abs format*
%FSLAX34Y34*%
G01*
G70*
G90*
G04 APERTURE LIST*
%ADD10C,0.00590551*%
%ADD11C,0.015*%
%ADD12C,0.005*%
%ADD13C,0.006*%
%ADD14C,0.00787402*%
%ADD15C,0.0045*%
G04 APERTURE END LIST*
G54D10*
G54D11*
X29921Y-19685D02*
X29921Y-36220D01*
X29133Y-19685D02*
X29133Y-36220D01*
X37795Y-28346D02*
X21259Y-28346D01*
X21259Y-27559D02*
X37795Y-27559D01*
G54D12*
X33551Y-31265D02*
X32651Y-31265D01*
X32651Y-31265D02*
X32651Y-31915D01*
X33551Y-32615D02*
X33551Y-33265D01*
X33551Y-33265D02*
X32651Y-33265D01*
X32651Y-33265D02*
X32651Y-32615D01*
X33551Y-31915D02*
X33551Y-31265D01*
X34151Y-33265D02*
X35051Y-33265D01*
X35051Y-33265D02*
X35051Y-32615D01*
X34151Y-31915D02*
X34151Y-31265D01*
X34151Y-31265D02*
X35051Y-31265D01*
X35051Y-31265D02*
X35051Y-31915D01*
X34151Y-32615D02*
X34151Y-33265D01*
X32851Y-33565D02*
X32851Y-34465D01*
X32851Y-34465D02*
X32351Y-34465D01*
X32351Y-34465D02*
X32351Y-33565D01*
X32351Y-33565D02*
X32851Y-33565D01*
X35351Y-33565D02*
X35351Y-34465D01*
X35351Y-34465D02*
X34851Y-34465D01*
X34851Y-34465D02*
X34851Y-33565D01*
X34851Y-33565D02*
X35351Y-33565D01*
X35051Y-30765D02*
X34151Y-30765D01*
X34151Y-30765D02*
X34151Y-30265D01*
X34151Y-30265D02*
X35051Y-30265D01*
X35051Y-30265D02*
X35051Y-30765D01*
X33551Y-30765D02*
X32651Y-30765D01*
X32651Y-30765D02*
X32651Y-30265D01*
X32651Y-30265D02*
X33551Y-30265D01*
X33551Y-30265D02*
X33551Y-30765D01*
G54D13*
X34101Y-34415D02*
X34101Y-33615D01*
X34101Y-33615D02*
X33601Y-33615D01*
X33601Y-33615D02*
X33601Y-34415D01*
X33601Y-34415D02*
X34101Y-34415D01*
G54D14*
X22547Y-32708D02*
X22547Y-28708D01*
X21547Y-32708D02*
X21547Y-28708D01*
X21547Y-28708D02*
X22547Y-28708D01*
X21547Y-32708D02*
X22547Y-32708D01*
G54D11*
X25669Y-33346D02*
X26062Y-33346D01*
X25000Y-33346D02*
X25393Y-33346D01*
X24330Y-33346D02*
X24724Y-33346D01*
X24330Y-31220D02*
X24724Y-31220D01*
X25669Y-31220D02*
X26062Y-31220D01*
X25000Y-31299D02*
X25000Y-31220D01*
X25000Y-31220D02*
X25393Y-31220D01*
X25393Y-31220D02*
X25393Y-31299D01*
X24212Y-32874D02*
X24606Y-33267D01*
X24212Y-31299D02*
X26181Y-31299D01*
X26181Y-31299D02*
X26181Y-33267D01*
X26181Y-33267D02*
X24212Y-33267D01*
X24212Y-33267D02*
X24212Y-31299D01*
G54D12*
X23242Y-30770D02*
X23242Y-31670D01*
X23242Y-31670D02*
X22742Y-31670D01*
X22742Y-31670D02*
X22742Y-30770D01*
X22742Y-30770D02*
X23242Y-30770D01*
X23242Y-29038D02*
X23242Y-29938D01*
X23242Y-29938D02*
X22742Y-29938D01*
X22742Y-29938D02*
X22742Y-29038D01*
X22742Y-29038D02*
X23242Y-29038D01*
X24777Y-34274D02*
X24777Y-35174D01*
X24777Y-35174D02*
X24277Y-35174D01*
X24277Y-35174D02*
X24277Y-34274D01*
X24277Y-34274D02*
X24777Y-34274D01*
X25446Y-34274D02*
X25446Y-35174D01*
X25446Y-35174D02*
X24946Y-35174D01*
X24946Y-35174D02*
X24946Y-34274D01*
X24946Y-34274D02*
X25446Y-34274D01*
X26116Y-34274D02*
X26116Y-35174D01*
X26116Y-35174D02*
X25616Y-35174D01*
X25616Y-35174D02*
X25616Y-34274D01*
X25616Y-34274D02*
X26116Y-34274D01*
X26952Y-29218D02*
X28952Y-29218D01*
X28952Y-29218D02*
X28952Y-31018D01*
X28952Y-31018D02*
X26952Y-31018D01*
X26952Y-31018D02*
X26952Y-29218D01*
X26952Y-29818D02*
X27152Y-29818D01*
X27152Y-29818D02*
X27152Y-30318D01*
X27152Y-30318D02*
X26952Y-30318D01*
X26952Y-20556D02*
X28952Y-20556D01*
X28952Y-20556D02*
X28952Y-22356D01*
X28952Y-22356D02*
X26952Y-22356D01*
X26952Y-22356D02*
X26952Y-20556D01*
X26952Y-21156D02*
X27152Y-21156D01*
X27152Y-21156D02*
X27152Y-21656D01*
X27152Y-21656D02*
X26952Y-21656D01*
X26116Y-25612D02*
X26116Y-26512D01*
X26116Y-26512D02*
X25616Y-26512D01*
X25616Y-26512D02*
X25616Y-25612D01*
X25616Y-25612D02*
X26116Y-25612D01*
X25446Y-25612D02*
X25446Y-26512D01*
X25446Y-26512D02*
X24946Y-26512D01*
X24946Y-26512D02*
X24946Y-25612D01*
X24946Y-25612D02*
X25446Y-25612D01*
X24777Y-25612D02*
X24777Y-26512D01*
X24777Y-26512D02*
X24277Y-26512D01*
X24277Y-26512D02*
X24277Y-25612D01*
X24277Y-25612D02*
X24777Y-25612D01*
X23242Y-20376D02*
X23242Y-21276D01*
X23242Y-21276D02*
X22742Y-21276D01*
X22742Y-21276D02*
X22742Y-20376D01*
X22742Y-20376D02*
X23242Y-20376D01*
X23242Y-22109D02*
X23242Y-23009D01*
X23242Y-23009D02*
X22742Y-23009D01*
X22742Y-23009D02*
X22742Y-22109D01*
X22742Y-22109D02*
X23242Y-22109D01*
G54D11*
X25669Y-24685D02*
X26062Y-24685D01*
X25000Y-24685D02*
X25393Y-24685D01*
X24330Y-24685D02*
X24724Y-24685D01*
X24330Y-22559D02*
X24724Y-22559D01*
X25669Y-22559D02*
X26062Y-22559D01*
X25000Y-22637D02*
X25000Y-22559D01*
X25000Y-22559D02*
X25393Y-22559D01*
X25393Y-22559D02*
X25393Y-22637D01*
X24212Y-24212D02*
X24606Y-24606D01*
X24212Y-22637D02*
X26181Y-22637D01*
X26181Y-22637D02*
X26181Y-24606D01*
X26181Y-24606D02*
X24212Y-24606D01*
X24212Y-24606D02*
X24212Y-22637D01*
G54D14*
X22547Y-24047D02*
X22547Y-20047D01*
X21547Y-24047D02*
X21547Y-20047D01*
X21547Y-20047D02*
X22547Y-20047D01*
X21547Y-24047D02*
X22547Y-24047D01*
G54D13*
X34101Y-25754D02*
X34101Y-24954D01*
X34101Y-24954D02*
X33601Y-24954D01*
X33601Y-24954D02*
X33601Y-25754D01*
X33601Y-25754D02*
X34101Y-25754D01*
G54D12*
X33551Y-22104D02*
X32651Y-22104D01*
X32651Y-22104D02*
X32651Y-21604D01*
X32651Y-21604D02*
X33551Y-21604D01*
X33551Y-21604D02*
X33551Y-22104D01*
X35051Y-22104D02*
X34151Y-22104D01*
X34151Y-22104D02*
X34151Y-21604D01*
X34151Y-21604D02*
X35051Y-21604D01*
X35051Y-21604D02*
X35051Y-22104D01*
X35351Y-24904D02*
X35351Y-25804D01*
X35351Y-25804D02*
X34851Y-25804D01*
X34851Y-25804D02*
X34851Y-24904D01*
X34851Y-24904D02*
X35351Y-24904D01*
X32851Y-24904D02*
X32851Y-25804D01*
X32851Y-25804D02*
X32351Y-25804D01*
X32351Y-25804D02*
X32351Y-24904D01*
X32351Y-24904D02*
X32851Y-24904D01*
X34151Y-24604D02*
X35051Y-24604D01*
X35051Y-24604D02*
X35051Y-23954D01*
X34151Y-23254D02*
X34151Y-22604D01*
X34151Y-22604D02*
X35051Y-22604D01*
X35051Y-22604D02*
X35051Y-23254D01*
X34151Y-23954D02*
X34151Y-24604D01*
X33551Y-22604D02*
X32651Y-22604D01*
X32651Y-22604D02*
X32651Y-23254D01*
X33551Y-23954D02*
X33551Y-24604D01*
X33551Y-24604D02*
X32651Y-24604D01*
X32651Y-24604D02*
X32651Y-23954D01*
X33551Y-23254D02*
X33551Y-22604D01*
X33222Y-32486D02*
X32922Y-32486D01*
X32922Y-32415D01*
X32936Y-32372D01*
X32965Y-32344D01*
X32994Y-32329D01*
X33051Y-32315D01*
X33094Y-32315D01*
X33151Y-32329D01*
X33179Y-32344D01*
X33208Y-32372D01*
X33222Y-32415D01*
X33222Y-32486D01*
X32951Y-32201D02*
X32936Y-32186D01*
X32922Y-32158D01*
X32922Y-32086D01*
X32936Y-32058D01*
X32951Y-32044D01*
X32979Y-32029D01*
X33008Y-32029D01*
X33051Y-32044D01*
X33222Y-32215D01*
X33222Y-32029D01*
X34722Y-32486D02*
X34422Y-32486D01*
X34422Y-32415D01*
X34436Y-32372D01*
X34465Y-32344D01*
X34494Y-32329D01*
X34551Y-32315D01*
X34594Y-32315D01*
X34651Y-32329D01*
X34679Y-32344D01*
X34708Y-32372D01*
X34722Y-32415D01*
X34722Y-32486D01*
X34722Y-32029D02*
X34722Y-32201D01*
X34722Y-32115D02*
X34422Y-32115D01*
X34465Y-32144D01*
X34494Y-32172D01*
X34508Y-32201D01*
G54D15*
X32663Y-34045D02*
X32672Y-34054D01*
X32682Y-34079D01*
X32682Y-34096D01*
X32672Y-34122D01*
X32653Y-34139D01*
X32634Y-34148D01*
X32596Y-34156D01*
X32567Y-34156D01*
X32529Y-34148D01*
X32510Y-34139D01*
X32491Y-34122D01*
X32482Y-34096D01*
X32482Y-34079D01*
X32491Y-34054D01*
X32501Y-34045D01*
X32682Y-33874D02*
X32682Y-33976D01*
X32682Y-33925D02*
X32482Y-33925D01*
X32510Y-33942D01*
X32529Y-33959D01*
X32539Y-33976D01*
X35182Y-34045D02*
X35086Y-34105D01*
X35182Y-34148D02*
X34982Y-34148D01*
X34982Y-34079D01*
X34991Y-34062D01*
X35001Y-34054D01*
X35020Y-34045D01*
X35048Y-34045D01*
X35067Y-34054D01*
X35077Y-34062D01*
X35086Y-34079D01*
X35086Y-34148D01*
X35182Y-33874D02*
X35182Y-33976D01*
X35182Y-33925D02*
X34982Y-33925D01*
X35010Y-33942D01*
X35029Y-33959D01*
X35039Y-33976D01*
X34571Y-30596D02*
X34511Y-30501D01*
X34468Y-30596D02*
X34468Y-30396D01*
X34536Y-30396D01*
X34554Y-30405D01*
X34562Y-30415D01*
X34571Y-30434D01*
X34571Y-30463D01*
X34562Y-30482D01*
X34554Y-30491D01*
X34536Y-30501D01*
X34468Y-30501D01*
X34639Y-30415D02*
X34648Y-30405D01*
X34665Y-30396D01*
X34708Y-30396D01*
X34725Y-30405D01*
X34734Y-30415D01*
X34742Y-30434D01*
X34742Y-30453D01*
X34734Y-30482D01*
X34631Y-30596D01*
X34742Y-30596D01*
X33071Y-30596D02*
X33011Y-30501D01*
X32968Y-30596D02*
X32968Y-30396D01*
X33036Y-30396D01*
X33054Y-30405D01*
X33062Y-30415D01*
X33071Y-30434D01*
X33071Y-30463D01*
X33062Y-30482D01*
X33054Y-30491D01*
X33036Y-30501D01*
X32968Y-30501D01*
X33131Y-30396D02*
X33242Y-30396D01*
X33182Y-30472D01*
X33208Y-30472D01*
X33225Y-30482D01*
X33234Y-30491D01*
X33242Y-30510D01*
X33242Y-30558D01*
X33234Y-30577D01*
X33225Y-30586D01*
X33208Y-30596D01*
X33156Y-30596D01*
X33139Y-30586D01*
X33131Y-30577D01*
G54D12*
X33672Y-34205D02*
X33915Y-34205D01*
X33944Y-34194D01*
X33958Y-34182D01*
X33972Y-34158D01*
X33972Y-34110D01*
X33958Y-34086D01*
X33944Y-34074D01*
X33915Y-34063D01*
X33672Y-34063D01*
X33972Y-33813D02*
X33972Y-33955D01*
X33972Y-33884D02*
X33672Y-33884D01*
X33715Y-33908D01*
X33744Y-33932D01*
X33758Y-33955D01*
G54D14*
X21556Y-33398D02*
X21838Y-33398D01*
X21894Y-33417D01*
X21931Y-33455D01*
X21950Y-33511D01*
X21950Y-33548D01*
X21950Y-33005D02*
X21950Y-33230D01*
X21950Y-33117D02*
X21556Y-33117D01*
X21613Y-33155D01*
X21650Y-33192D01*
X21669Y-33230D01*
X24925Y-32482D02*
X24925Y-32088D01*
X25019Y-32088D01*
X25075Y-32107D01*
X25113Y-32144D01*
X25132Y-32182D01*
X25150Y-32257D01*
X25150Y-32313D01*
X25132Y-32388D01*
X25113Y-32425D01*
X25075Y-32463D01*
X25019Y-32482D01*
X24925Y-32482D01*
X25525Y-32482D02*
X25300Y-32482D01*
X25413Y-32482D02*
X25413Y-32088D01*
X25375Y-32144D01*
X25338Y-32182D01*
X25300Y-32200D01*
G54D15*
X23054Y-31250D02*
X23063Y-31259D01*
X23073Y-31284D01*
X23073Y-31301D01*
X23063Y-31327D01*
X23044Y-31344D01*
X23025Y-31353D01*
X22987Y-31361D01*
X22958Y-31361D01*
X22920Y-31353D01*
X22901Y-31344D01*
X22882Y-31327D01*
X22873Y-31301D01*
X22873Y-31284D01*
X22882Y-31259D01*
X22892Y-31250D01*
X23073Y-31079D02*
X23073Y-31181D01*
X23073Y-31130D02*
X22873Y-31130D01*
X22901Y-31147D01*
X22920Y-31164D01*
X22930Y-31181D01*
X23073Y-29518D02*
X22977Y-29578D01*
X23073Y-29621D02*
X22873Y-29621D01*
X22873Y-29552D01*
X22882Y-29535D01*
X22892Y-29526D01*
X22911Y-29518D01*
X22939Y-29518D01*
X22958Y-29526D01*
X22968Y-29535D01*
X22977Y-29552D01*
X22977Y-29621D01*
X22939Y-29363D02*
X23073Y-29363D01*
X22863Y-29406D02*
X23006Y-29449D01*
X23006Y-29338D01*
X24608Y-34754D02*
X24513Y-34814D01*
X24608Y-34857D02*
X24408Y-34857D01*
X24408Y-34788D01*
X24418Y-34771D01*
X24427Y-34762D01*
X24446Y-34754D01*
X24475Y-34754D01*
X24494Y-34762D01*
X24503Y-34771D01*
X24513Y-34788D01*
X24513Y-34857D01*
X24408Y-34694D02*
X24408Y-34582D01*
X24484Y-34642D01*
X24484Y-34617D01*
X24494Y-34600D01*
X24503Y-34591D01*
X24522Y-34582D01*
X24570Y-34582D01*
X24589Y-34591D01*
X24598Y-34600D01*
X24608Y-34617D01*
X24608Y-34668D01*
X24598Y-34685D01*
X24589Y-34694D01*
X25277Y-34754D02*
X25182Y-34814D01*
X25277Y-34857D02*
X25077Y-34857D01*
X25077Y-34788D01*
X25087Y-34771D01*
X25096Y-34762D01*
X25115Y-34754D01*
X25144Y-34754D01*
X25163Y-34762D01*
X25173Y-34771D01*
X25182Y-34788D01*
X25182Y-34857D01*
X25096Y-34685D02*
X25087Y-34677D01*
X25077Y-34660D01*
X25077Y-34617D01*
X25087Y-34600D01*
X25096Y-34591D01*
X25115Y-34582D01*
X25134Y-34582D01*
X25163Y-34591D01*
X25277Y-34694D01*
X25277Y-34582D01*
X25947Y-34754D02*
X25851Y-34814D01*
X25947Y-34857D02*
X25747Y-34857D01*
X25747Y-34788D01*
X25756Y-34771D01*
X25766Y-34762D01*
X25785Y-34754D01*
X25813Y-34754D01*
X25832Y-34762D01*
X25842Y-34771D01*
X25851Y-34788D01*
X25851Y-34857D01*
X25947Y-34582D02*
X25947Y-34685D01*
X25947Y-34634D02*
X25747Y-34634D01*
X25775Y-34651D01*
X25794Y-34668D01*
X25804Y-34685D01*
G54D12*
X27712Y-30395D02*
X27712Y-30714D01*
X27727Y-30751D01*
X27742Y-30770D01*
X27772Y-30789D01*
X27832Y-30789D01*
X27862Y-30770D01*
X27877Y-30751D01*
X27892Y-30714D01*
X27892Y-30395D01*
X28207Y-30789D02*
X28027Y-30789D01*
X28117Y-30789D02*
X28117Y-30395D01*
X28087Y-30451D01*
X28057Y-30489D01*
X28027Y-30507D01*
X27712Y-21733D02*
X27712Y-22052D01*
X27727Y-22090D01*
X27742Y-22109D01*
X27772Y-22127D01*
X27832Y-22127D01*
X27862Y-22109D01*
X27877Y-22090D01*
X27892Y-22052D01*
X27892Y-21733D01*
X28207Y-22127D02*
X28027Y-22127D01*
X28117Y-22127D02*
X28117Y-21733D01*
X28087Y-21790D01*
X28057Y-21827D01*
X28027Y-21846D01*
G54D15*
X25947Y-26092D02*
X25851Y-26152D01*
X25947Y-26195D02*
X25747Y-26195D01*
X25747Y-26127D01*
X25756Y-26110D01*
X25766Y-26101D01*
X25785Y-26092D01*
X25813Y-26092D01*
X25832Y-26101D01*
X25842Y-26110D01*
X25851Y-26127D01*
X25851Y-26195D01*
X25947Y-25921D02*
X25947Y-26024D01*
X25947Y-25972D02*
X25747Y-25972D01*
X25775Y-25990D01*
X25794Y-26007D01*
X25804Y-26024D01*
X25277Y-26092D02*
X25182Y-26152D01*
X25277Y-26195D02*
X25077Y-26195D01*
X25077Y-26127D01*
X25087Y-26110D01*
X25096Y-26101D01*
X25115Y-26092D01*
X25144Y-26092D01*
X25163Y-26101D01*
X25173Y-26110D01*
X25182Y-26127D01*
X25182Y-26195D01*
X25096Y-26024D02*
X25087Y-26015D01*
X25077Y-25998D01*
X25077Y-25955D01*
X25087Y-25938D01*
X25096Y-25930D01*
X25115Y-25921D01*
X25134Y-25921D01*
X25163Y-25930D01*
X25277Y-26032D01*
X25277Y-25921D01*
X24608Y-26092D02*
X24513Y-26152D01*
X24608Y-26195D02*
X24408Y-26195D01*
X24408Y-26127D01*
X24418Y-26110D01*
X24427Y-26101D01*
X24446Y-26092D01*
X24475Y-26092D01*
X24494Y-26101D01*
X24503Y-26110D01*
X24513Y-26127D01*
X24513Y-26195D01*
X24408Y-26032D02*
X24408Y-25921D01*
X24484Y-25981D01*
X24484Y-25955D01*
X24494Y-25938D01*
X24503Y-25930D01*
X24522Y-25921D01*
X24570Y-25921D01*
X24589Y-25930D01*
X24598Y-25938D01*
X24608Y-25955D01*
X24608Y-26007D01*
X24598Y-26024D01*
X24589Y-26032D01*
X23073Y-20856D02*
X22977Y-20916D01*
X23073Y-20959D02*
X22873Y-20959D01*
X22873Y-20891D01*
X22882Y-20873D01*
X22892Y-20865D01*
X22911Y-20856D01*
X22939Y-20856D01*
X22958Y-20865D01*
X22968Y-20873D01*
X22977Y-20891D01*
X22977Y-20959D01*
X22939Y-20702D02*
X23073Y-20702D01*
X22863Y-20745D02*
X23006Y-20788D01*
X23006Y-20676D01*
X23054Y-22589D02*
X23063Y-22597D01*
X23073Y-22623D01*
X23073Y-22640D01*
X23063Y-22666D01*
X23044Y-22683D01*
X23025Y-22691D01*
X22987Y-22700D01*
X22958Y-22700D01*
X22920Y-22691D01*
X22901Y-22683D01*
X22882Y-22666D01*
X22873Y-22640D01*
X22873Y-22623D01*
X22882Y-22597D01*
X22892Y-22589D01*
X23073Y-22417D02*
X23073Y-22520D01*
X23073Y-22469D02*
X22873Y-22469D01*
X22901Y-22486D01*
X22920Y-22503D01*
X22930Y-22520D01*
G54D14*
X24925Y-23820D02*
X24925Y-23427D01*
X25019Y-23427D01*
X25075Y-23445D01*
X25113Y-23483D01*
X25132Y-23520D01*
X25150Y-23595D01*
X25150Y-23652D01*
X25132Y-23727D01*
X25113Y-23764D01*
X25075Y-23802D01*
X25019Y-23820D01*
X24925Y-23820D01*
X25525Y-23820D02*
X25300Y-23820D01*
X25413Y-23820D02*
X25413Y-23427D01*
X25375Y-23483D01*
X25338Y-23520D01*
X25300Y-23539D01*
X21556Y-24737D02*
X21838Y-24737D01*
X21894Y-24756D01*
X21931Y-24793D01*
X21950Y-24850D01*
X21950Y-24887D01*
X21950Y-24343D02*
X21950Y-24568D01*
X21950Y-24456D02*
X21556Y-24456D01*
X21613Y-24493D01*
X21650Y-24531D01*
X21669Y-24568D01*
G54D12*
X33672Y-25544D02*
X33915Y-25544D01*
X33944Y-25532D01*
X33958Y-25520D01*
X33972Y-25496D01*
X33972Y-25449D01*
X33958Y-25425D01*
X33944Y-25413D01*
X33915Y-25401D01*
X33672Y-25401D01*
X33972Y-25151D02*
X33972Y-25294D01*
X33972Y-25223D02*
X33672Y-25223D01*
X33715Y-25246D01*
X33744Y-25270D01*
X33758Y-25294D01*
G54D15*
X33071Y-21935D02*
X33011Y-21839D01*
X32968Y-21935D02*
X32968Y-21735D01*
X33036Y-21735D01*
X33054Y-21744D01*
X33062Y-21754D01*
X33071Y-21773D01*
X33071Y-21801D01*
X33062Y-21820D01*
X33054Y-21830D01*
X33036Y-21839D01*
X32968Y-21839D01*
X33131Y-21735D02*
X33242Y-21735D01*
X33182Y-21811D01*
X33208Y-21811D01*
X33225Y-21820D01*
X33234Y-21830D01*
X33242Y-21849D01*
X33242Y-21896D01*
X33234Y-21915D01*
X33225Y-21925D01*
X33208Y-21935D01*
X33156Y-21935D01*
X33139Y-21925D01*
X33131Y-21915D01*
X34571Y-21935D02*
X34511Y-21839D01*
X34468Y-21935D02*
X34468Y-21735D01*
X34536Y-21735D01*
X34554Y-21744D01*
X34562Y-21754D01*
X34571Y-21773D01*
X34571Y-21801D01*
X34562Y-21820D01*
X34554Y-21830D01*
X34536Y-21839D01*
X34468Y-21839D01*
X34639Y-21754D02*
X34648Y-21744D01*
X34665Y-21735D01*
X34708Y-21735D01*
X34725Y-21744D01*
X34734Y-21754D01*
X34742Y-21773D01*
X34742Y-21792D01*
X34734Y-21820D01*
X34631Y-21935D01*
X34742Y-21935D01*
X35182Y-25384D02*
X35086Y-25444D01*
X35182Y-25486D02*
X34982Y-25486D01*
X34982Y-25418D01*
X34991Y-25401D01*
X35001Y-25392D01*
X35020Y-25384D01*
X35048Y-25384D01*
X35067Y-25392D01*
X35077Y-25401D01*
X35086Y-25418D01*
X35086Y-25486D01*
X35182Y-25212D02*
X35182Y-25315D01*
X35182Y-25264D02*
X34982Y-25264D01*
X35010Y-25281D01*
X35029Y-25298D01*
X35039Y-25315D01*
X32663Y-25384D02*
X32672Y-25392D01*
X32682Y-25418D01*
X32682Y-25435D01*
X32672Y-25461D01*
X32653Y-25478D01*
X32634Y-25486D01*
X32596Y-25495D01*
X32567Y-25495D01*
X32529Y-25486D01*
X32510Y-25478D01*
X32491Y-25461D01*
X32482Y-25435D01*
X32482Y-25418D01*
X32491Y-25392D01*
X32501Y-25384D01*
X32682Y-25212D02*
X32682Y-25315D01*
X32682Y-25264D02*
X32482Y-25264D01*
X32510Y-25281D01*
X32529Y-25298D01*
X32539Y-25315D01*
G54D12*
X34722Y-23825D02*
X34422Y-23825D01*
X34422Y-23754D01*
X34436Y-23711D01*
X34465Y-23682D01*
X34494Y-23668D01*
X34551Y-23654D01*
X34594Y-23654D01*
X34651Y-23668D01*
X34679Y-23682D01*
X34708Y-23711D01*
X34722Y-23754D01*
X34722Y-23825D01*
X34722Y-23368D02*
X34722Y-23539D01*
X34722Y-23454D02*
X34422Y-23454D01*
X34465Y-23482D01*
X34494Y-23511D01*
X34508Y-23539D01*
X33222Y-23825D02*
X32922Y-23825D01*
X32922Y-23754D01*
X32936Y-23711D01*
X32965Y-23682D01*
X32994Y-23668D01*
X33051Y-23654D01*
X33094Y-23654D01*
X33151Y-23668D01*
X33179Y-23682D01*
X33208Y-23711D01*
X33222Y-23754D01*
X33222Y-23825D01*
X32951Y-23539D02*
X32936Y-23525D01*
X32922Y-23496D01*
X32922Y-23425D01*
X32936Y-23396D01*
X32951Y-23382D01*
X32979Y-23368D01*
X33008Y-23368D01*
X33051Y-23382D01*
X33222Y-23554D01*
X33222Y-23368D01*
M02*
