G04 (created by PCBNEW (2013-07-07 BZR 4022)-stable) date 22/01/2014 05:32:29*
%MOIN*%
G04 Gerber Fmt 3.4, Leading zero omitted, Abs format*
%FSLAX34Y34*%
G01*
G70*
G90*
G04 APERTURE LIST*
%ADD10C,0.00590551*%
%ADD11C,0.157795*%
%ADD12C,0.13811*%
%ADD13C,0.0672441*%
%ADD14R,0.1X0.08*%
%ADD15R,0.065X0.045*%
%ADD16R,0.045X0.065*%
%ADD17R,0.04X0.032*%
%ADD18C,0.0869*%
%ADD19R,0.0633071X0.13811*%
%ADD20R,0.04X0.0791*%
G04 APERTURE END LIST*
G54D10*
G54D11*
X31252Y-31165D03*
X36449Y-31165D03*
G54D12*
X38582Y-32283D03*
G54D13*
X32851Y-34965D03*
X34851Y-34965D03*
G54D14*
X33101Y-31615D03*
X33101Y-32915D03*
X34601Y-32915D03*
X34601Y-31615D03*
G54D15*
X32601Y-33715D03*
X32601Y-34315D03*
X35101Y-33715D03*
X35101Y-34315D03*
G54D16*
X34901Y-30515D03*
X34301Y-30515D03*
X33401Y-30515D03*
X32801Y-30515D03*
G54D17*
X33451Y-33765D03*
X33451Y-34265D03*
X34251Y-33765D03*
X33451Y-34015D03*
X34251Y-34265D03*
G54D11*
X28188Y-33464D03*
X22992Y-33464D03*
G54D12*
X20472Y-32283D03*
G54D18*
X22125Y-32208D03*
X21968Y-31208D03*
X21968Y-30208D03*
X22125Y-29208D03*
G54D13*
X27377Y-29527D03*
X25377Y-29527D03*
G54D19*
X24527Y-33425D03*
X25196Y-33425D03*
X25866Y-33425D03*
X25866Y-31141D03*
X25196Y-31141D03*
X24527Y-31141D03*
G54D15*
X22992Y-30920D03*
X22992Y-31520D03*
X22992Y-29188D03*
X22992Y-29788D03*
X24527Y-34424D03*
X24527Y-35024D03*
X25196Y-34424D03*
X25196Y-35024D03*
X25866Y-34424D03*
X25866Y-35024D03*
G54D20*
X27202Y-28868D03*
X27702Y-28868D03*
X28202Y-28868D03*
X28702Y-28868D03*
X28702Y-31368D03*
X28202Y-31368D03*
X27702Y-31368D03*
X27202Y-31368D03*
X27202Y-20206D03*
X27702Y-20206D03*
X28202Y-20206D03*
X28702Y-20206D03*
X28702Y-22706D03*
X28202Y-22706D03*
X27702Y-22706D03*
X27202Y-22706D03*
G54D15*
X25866Y-25762D03*
X25866Y-26362D03*
X25196Y-25762D03*
X25196Y-26362D03*
X24527Y-25762D03*
X24527Y-26362D03*
X22992Y-20526D03*
X22992Y-21126D03*
X22992Y-22259D03*
X22992Y-22859D03*
G54D19*
X24527Y-24763D03*
X25196Y-24763D03*
X25866Y-24763D03*
X25866Y-22480D03*
X25196Y-22480D03*
X24527Y-22480D03*
G54D13*
X27377Y-20866D03*
X25377Y-20866D03*
G54D18*
X22125Y-23547D03*
X21968Y-22547D03*
X21968Y-21547D03*
X22125Y-20547D03*
G54D12*
X20472Y-23622D03*
G54D11*
X28188Y-24803D03*
X22992Y-24803D03*
G54D17*
X33451Y-25104D03*
X33451Y-25604D03*
X34251Y-25104D03*
X33451Y-25354D03*
X34251Y-25604D03*
G54D16*
X33401Y-21854D03*
X32801Y-21854D03*
X34901Y-21854D03*
X34301Y-21854D03*
G54D15*
X35101Y-25054D03*
X35101Y-25654D03*
X32601Y-25054D03*
X32601Y-25654D03*
G54D14*
X34601Y-24254D03*
X34601Y-22954D03*
X33101Y-22954D03*
X33101Y-24254D03*
G54D13*
X32851Y-26304D03*
X34851Y-26304D03*
G54D12*
X38582Y-23622D03*
G54D11*
X31252Y-22504D03*
X36449Y-22504D03*
M02*
