G04 (created by PCBNEW (2013-07-07 BZR 4022)-stable) date 22/01/2014 05:32:29*
%MOIN*%
G04 Gerber Fmt 3.4, Leading zero omitted, Abs format*
%FSLAX34Y34*%
G01*
G70*
G90*
G04 APERTURE LIST*
%ADD10C,0.00590551*%
%ADD11R,0.13811X0.13811*%
%ADD12C,0.13811*%
%ADD13C,0.0672441*%
%ADD14R,0.0554331X0.0715748*%
%ADD15R,0.0633071X0.0518898*%
%ADD16C,0.0869*%
G04 APERTURE END LIST*
G54D10*
G54D11*
X33851Y-31165D03*
G54D12*
X38582Y-32283D03*
G54D13*
X32851Y-34965D03*
X34851Y-34965D03*
G54D14*
X35044Y-34245D03*
X34481Y-34245D03*
X33221Y-34245D03*
X32658Y-34245D03*
G54D15*
X35992Y-34520D03*
X35992Y-35410D03*
X31709Y-34520D03*
X31709Y-35410D03*
G54D11*
X25590Y-33464D03*
G54D12*
X20472Y-32283D03*
G54D16*
X22125Y-32208D03*
X21968Y-31208D03*
X21968Y-30208D03*
X22125Y-29208D03*
G54D13*
X27377Y-29527D03*
X25377Y-29527D03*
G54D14*
X25185Y-30248D03*
X25748Y-30248D03*
X27007Y-30248D03*
X27570Y-30248D03*
G54D15*
X24236Y-29972D03*
X24236Y-29082D03*
X28519Y-29972D03*
X28519Y-29082D03*
G54D13*
X27377Y-20866D03*
X25377Y-20866D03*
G54D14*
X25185Y-21586D03*
X25748Y-21586D03*
X27007Y-21586D03*
X27570Y-21586D03*
G54D15*
X24236Y-21311D03*
X24236Y-20421D03*
X28519Y-21311D03*
X28519Y-20421D03*
G54D16*
X22125Y-23547D03*
X21968Y-22547D03*
X21968Y-21547D03*
X22125Y-20547D03*
G54D12*
X20472Y-23622D03*
G54D11*
X25590Y-24803D03*
G54D13*
X32851Y-26304D03*
X34851Y-26304D03*
G54D14*
X35044Y-25583D03*
X34481Y-25583D03*
X33221Y-25583D03*
X32658Y-25583D03*
G54D15*
X35992Y-25859D03*
X35992Y-26748D03*
X31709Y-25859D03*
X31709Y-26748D03*
G54D12*
X38582Y-23622D03*
G54D11*
X33851Y-22504D03*
M02*
