G04 (created by PCBNEW (2013-07-07 BZR 4022)-stable) date 22/01/2014 05:32:29*
%MOIN*%
G04 Gerber Fmt 3.4, Leading zero omitted, Abs format*
%FSLAX34Y34*%
G01*
G70*
G90*
G04 APERTURE LIST*
%ADD10C,0.00590551*%
%ADD11C,0.015*%
%ADD12C,0.00787402*%
%ADD13C,0.012*%
G04 APERTURE END LIST*
G54D10*
G54D11*
X29133Y-19685D02*
X29133Y-36220D01*
X29921Y-19685D02*
X29921Y-36220D01*
X21259Y-28346D02*
X37795Y-28346D01*
X21259Y-27559D02*
X37795Y-27559D01*
G54D10*
X37235Y-32594D02*
X37235Y-32425D01*
X37628Y-32425D01*
X37441Y-32712D02*
X37441Y-32830D01*
X37235Y-32881D02*
X37235Y-32712D01*
X37628Y-32712D01*
X37628Y-32881D01*
X37235Y-33033D02*
X37628Y-33033D01*
X37628Y-33117D01*
X37610Y-33168D01*
X37572Y-33201D01*
X37535Y-33218D01*
X37460Y-33235D01*
X37403Y-33235D01*
X37328Y-33218D01*
X37291Y-33201D01*
X37253Y-33168D01*
X37235Y-33117D01*
X37235Y-33033D01*
X37441Y-33775D02*
X37422Y-33826D01*
X37403Y-33843D01*
X37366Y-33859D01*
X37310Y-33859D01*
X37272Y-33843D01*
X37253Y-33826D01*
X37235Y-33792D01*
X37235Y-33657D01*
X37628Y-33657D01*
X37628Y-33775D01*
X37610Y-33809D01*
X37591Y-33826D01*
X37553Y-33843D01*
X37516Y-33843D01*
X37478Y-33826D01*
X37460Y-33809D01*
X37441Y-33775D01*
X37441Y-33657D01*
X37235Y-34180D02*
X37235Y-34011D01*
X37628Y-34011D01*
X37235Y-34298D02*
X37628Y-34298D01*
X37235Y-34467D02*
X37628Y-34467D01*
X37235Y-34669D01*
X37628Y-34669D01*
X37235Y-34838D02*
X37628Y-34838D01*
X37235Y-35041D02*
X37460Y-34889D01*
X37628Y-35041D02*
X37403Y-34838D01*
X37441Y-35580D02*
X37422Y-35631D01*
X37403Y-35648D01*
X37366Y-35665D01*
X37310Y-35665D01*
X37272Y-35648D01*
X37253Y-35631D01*
X37235Y-35597D01*
X37235Y-35462D01*
X37628Y-35462D01*
X37628Y-35580D01*
X37610Y-35614D01*
X37591Y-35631D01*
X37553Y-35648D01*
X37516Y-35648D01*
X37478Y-35631D01*
X37460Y-35614D01*
X37441Y-35580D01*
X37441Y-35462D01*
X36624Y-32062D02*
X37018Y-32062D01*
X37018Y-32147D01*
X36999Y-32197D01*
X36962Y-32231D01*
X36924Y-32248D01*
X36849Y-32265D01*
X36793Y-32265D01*
X36718Y-32248D01*
X36681Y-32231D01*
X36643Y-32197D01*
X36624Y-32147D01*
X36624Y-32062D01*
X36831Y-32417D02*
X36831Y-32535D01*
X36624Y-32586D02*
X36624Y-32417D01*
X37018Y-32417D01*
X37018Y-32586D01*
X36643Y-32721D02*
X36624Y-32771D01*
X36624Y-32856D01*
X36643Y-32889D01*
X36662Y-32906D01*
X36699Y-32923D01*
X36737Y-32923D01*
X36774Y-32906D01*
X36793Y-32889D01*
X36812Y-32856D01*
X36831Y-32788D01*
X36849Y-32754D01*
X36868Y-32737D01*
X36906Y-32721D01*
X36943Y-32721D01*
X36981Y-32737D01*
X36999Y-32754D01*
X37018Y-32788D01*
X37018Y-32872D01*
X36999Y-32923D01*
X36624Y-33075D02*
X37018Y-33075D01*
X36999Y-33429D02*
X37018Y-33395D01*
X37018Y-33345D01*
X36999Y-33294D01*
X36962Y-33260D01*
X36924Y-33244D01*
X36849Y-33227D01*
X36793Y-33227D01*
X36718Y-33244D01*
X36681Y-33260D01*
X36643Y-33294D01*
X36624Y-33345D01*
X36624Y-33379D01*
X36643Y-33429D01*
X36662Y-33446D01*
X36793Y-33446D01*
X36793Y-33379D01*
X36624Y-33598D02*
X37018Y-33598D01*
X36624Y-33800D01*
X37018Y-33800D01*
X36831Y-34357D02*
X36812Y-34408D01*
X36793Y-34425D01*
X36756Y-34442D01*
X36699Y-34442D01*
X36662Y-34425D01*
X36643Y-34408D01*
X36624Y-34374D01*
X36624Y-34239D01*
X37018Y-34239D01*
X37018Y-34357D01*
X36999Y-34391D01*
X36981Y-34408D01*
X36943Y-34425D01*
X36906Y-34425D01*
X36868Y-34408D01*
X36849Y-34391D01*
X36831Y-34357D01*
X36831Y-34239D01*
X36812Y-34661D02*
X36624Y-34661D01*
X37018Y-34543D02*
X36812Y-34661D01*
X37018Y-34779D01*
X36643Y-35150D02*
X36624Y-35201D01*
X36624Y-35285D01*
X36643Y-35319D01*
X36662Y-35336D01*
X36699Y-35353D01*
X36737Y-35353D01*
X36774Y-35336D01*
X36793Y-35319D01*
X36812Y-35285D01*
X36831Y-35218D01*
X36849Y-35184D01*
X36868Y-35167D01*
X36906Y-35150D01*
X36943Y-35150D01*
X36981Y-35167D01*
X36999Y-35184D01*
X37018Y-35218D01*
X37018Y-35302D01*
X36999Y-35353D01*
X37018Y-35505D02*
X36699Y-35505D01*
X36662Y-35521D01*
X36643Y-35538D01*
X36624Y-35572D01*
X36624Y-35640D01*
X36643Y-35673D01*
X36662Y-35690D01*
X36699Y-35707D01*
X37018Y-35707D01*
X36831Y-35994D02*
X36831Y-35876D01*
X36624Y-35876D02*
X37018Y-35876D01*
X37018Y-36045D01*
X22009Y-33076D02*
X21616Y-33076D01*
X21616Y-33160D01*
X21634Y-33211D01*
X21672Y-33245D01*
X21709Y-33262D01*
X21784Y-33278D01*
X21841Y-33278D01*
X21916Y-33262D01*
X21953Y-33245D01*
X21991Y-33211D01*
X22009Y-33160D01*
X22009Y-33076D01*
X21803Y-33430D02*
X21803Y-33548D01*
X22009Y-33599D02*
X22009Y-33430D01*
X21616Y-33430D01*
X21616Y-33599D01*
X21991Y-33734D02*
X22009Y-33785D01*
X22009Y-33869D01*
X21991Y-33903D01*
X21972Y-33920D01*
X21934Y-33937D01*
X21897Y-33937D01*
X21859Y-33920D01*
X21841Y-33903D01*
X21822Y-33869D01*
X21803Y-33802D01*
X21784Y-33768D01*
X21766Y-33751D01*
X21728Y-33734D01*
X21691Y-33734D01*
X21653Y-33751D01*
X21634Y-33768D01*
X21616Y-33802D01*
X21616Y-33886D01*
X21634Y-33937D01*
X22009Y-34088D02*
X21616Y-34088D01*
X21634Y-34443D02*
X21616Y-34409D01*
X21616Y-34358D01*
X21634Y-34308D01*
X21672Y-34274D01*
X21709Y-34257D01*
X21784Y-34240D01*
X21841Y-34240D01*
X21916Y-34257D01*
X21953Y-34274D01*
X21991Y-34308D01*
X22009Y-34358D01*
X22009Y-34392D01*
X21991Y-34443D01*
X21972Y-34460D01*
X21841Y-34460D01*
X21841Y-34392D01*
X22009Y-34611D02*
X21616Y-34611D01*
X22009Y-34814D01*
X21616Y-34814D01*
X21803Y-35371D02*
X21822Y-35421D01*
X21841Y-35438D01*
X21878Y-35455D01*
X21934Y-35455D01*
X21972Y-35438D01*
X21991Y-35421D01*
X22009Y-35388D01*
X22009Y-35253D01*
X21616Y-35253D01*
X21616Y-35371D01*
X21634Y-35404D01*
X21653Y-35421D01*
X21691Y-35438D01*
X21728Y-35438D01*
X21766Y-35421D01*
X21784Y-35404D01*
X21803Y-35371D01*
X21803Y-35253D01*
X21822Y-35674D02*
X22009Y-35674D01*
X21616Y-35556D02*
X21822Y-35674D01*
X21616Y-35793D01*
X22601Y-34881D02*
X22619Y-34932D01*
X22619Y-35016D01*
X22601Y-35050D01*
X22582Y-35067D01*
X22544Y-35084D01*
X22507Y-35084D01*
X22470Y-35067D01*
X22451Y-35050D01*
X22432Y-35016D01*
X22413Y-34949D01*
X22395Y-34915D01*
X22376Y-34898D01*
X22338Y-34881D01*
X22301Y-34881D01*
X22263Y-34898D01*
X22245Y-34915D01*
X22226Y-34949D01*
X22226Y-35033D01*
X22245Y-35084D01*
X22226Y-35236D02*
X22544Y-35236D01*
X22582Y-35253D01*
X22601Y-35269D01*
X22619Y-35303D01*
X22619Y-35371D01*
X22601Y-35404D01*
X22582Y-35421D01*
X22544Y-35438D01*
X22226Y-35438D01*
X22413Y-35725D02*
X22413Y-35607D01*
X22619Y-35607D02*
X22226Y-35607D01*
X22226Y-35776D01*
X22009Y-24415D02*
X21616Y-24415D01*
X21616Y-24499D01*
X21634Y-24550D01*
X21672Y-24583D01*
X21709Y-24600D01*
X21784Y-24617D01*
X21841Y-24617D01*
X21916Y-24600D01*
X21953Y-24583D01*
X21991Y-24550D01*
X22009Y-24499D01*
X22009Y-24415D01*
X21803Y-24769D02*
X21803Y-24887D01*
X22009Y-24938D02*
X22009Y-24769D01*
X21616Y-24769D01*
X21616Y-24938D01*
X21991Y-25073D02*
X22009Y-25123D01*
X22009Y-25208D01*
X21991Y-25241D01*
X21972Y-25258D01*
X21934Y-25275D01*
X21897Y-25275D01*
X21859Y-25258D01*
X21841Y-25241D01*
X21822Y-25208D01*
X21803Y-25140D01*
X21784Y-25106D01*
X21766Y-25089D01*
X21728Y-25073D01*
X21691Y-25073D01*
X21653Y-25089D01*
X21634Y-25106D01*
X21616Y-25140D01*
X21616Y-25224D01*
X21634Y-25275D01*
X22009Y-25427D02*
X21616Y-25427D01*
X21634Y-25781D02*
X21616Y-25748D01*
X21616Y-25697D01*
X21634Y-25646D01*
X21672Y-25613D01*
X21709Y-25596D01*
X21784Y-25579D01*
X21841Y-25579D01*
X21916Y-25596D01*
X21953Y-25613D01*
X21991Y-25646D01*
X22009Y-25697D01*
X22009Y-25731D01*
X21991Y-25781D01*
X21972Y-25798D01*
X21841Y-25798D01*
X21841Y-25731D01*
X22009Y-25950D02*
X21616Y-25950D01*
X22009Y-26152D01*
X21616Y-26152D01*
X21803Y-26709D02*
X21822Y-26760D01*
X21841Y-26777D01*
X21878Y-26794D01*
X21934Y-26794D01*
X21972Y-26777D01*
X21991Y-26760D01*
X22009Y-26726D01*
X22009Y-26591D01*
X21616Y-26591D01*
X21616Y-26709D01*
X21634Y-26743D01*
X21653Y-26760D01*
X21691Y-26777D01*
X21728Y-26777D01*
X21766Y-26760D01*
X21784Y-26743D01*
X21803Y-26709D01*
X21803Y-26591D01*
X21822Y-27013D02*
X22009Y-27013D01*
X21616Y-26895D02*
X21822Y-27013D01*
X21616Y-27131D01*
X22601Y-26220D02*
X22619Y-26271D01*
X22619Y-26355D01*
X22601Y-26389D01*
X22582Y-26406D01*
X22544Y-26422D01*
X22507Y-26422D01*
X22470Y-26406D01*
X22451Y-26389D01*
X22432Y-26355D01*
X22413Y-26287D01*
X22395Y-26254D01*
X22376Y-26237D01*
X22338Y-26220D01*
X22301Y-26220D01*
X22263Y-26237D01*
X22245Y-26254D01*
X22226Y-26287D01*
X22226Y-26372D01*
X22245Y-26422D01*
X22226Y-26574D02*
X22544Y-26574D01*
X22582Y-26591D01*
X22601Y-26608D01*
X22619Y-26642D01*
X22619Y-26709D01*
X22601Y-26743D01*
X22582Y-26760D01*
X22544Y-26777D01*
X22226Y-26777D01*
X22413Y-27064D02*
X22413Y-26946D01*
X22619Y-26946D02*
X22226Y-26946D01*
X22226Y-27114D01*
X37235Y-23933D02*
X37235Y-23764D01*
X37628Y-23764D01*
X37441Y-24051D02*
X37441Y-24169D01*
X37235Y-24219D02*
X37235Y-24051D01*
X37628Y-24051D01*
X37628Y-24219D01*
X37235Y-24371D02*
X37628Y-24371D01*
X37628Y-24456D01*
X37610Y-24506D01*
X37572Y-24540D01*
X37535Y-24557D01*
X37460Y-24574D01*
X37403Y-24574D01*
X37328Y-24557D01*
X37291Y-24540D01*
X37253Y-24506D01*
X37235Y-24456D01*
X37235Y-24371D01*
X37441Y-25114D02*
X37422Y-25164D01*
X37403Y-25181D01*
X37366Y-25198D01*
X37310Y-25198D01*
X37272Y-25181D01*
X37253Y-25164D01*
X37235Y-25131D01*
X37235Y-24996D01*
X37628Y-24996D01*
X37628Y-25114D01*
X37610Y-25147D01*
X37591Y-25164D01*
X37553Y-25181D01*
X37516Y-25181D01*
X37478Y-25164D01*
X37460Y-25147D01*
X37441Y-25114D01*
X37441Y-24996D01*
X37235Y-25519D02*
X37235Y-25350D01*
X37628Y-25350D01*
X37235Y-25637D02*
X37628Y-25637D01*
X37235Y-25805D02*
X37628Y-25805D01*
X37235Y-26008D01*
X37628Y-26008D01*
X37235Y-26177D02*
X37628Y-26177D01*
X37235Y-26379D02*
X37460Y-26227D01*
X37628Y-26379D02*
X37403Y-26177D01*
X37441Y-26919D02*
X37422Y-26970D01*
X37403Y-26987D01*
X37366Y-27003D01*
X37310Y-27003D01*
X37272Y-26987D01*
X37253Y-26970D01*
X37235Y-26936D01*
X37235Y-26801D01*
X37628Y-26801D01*
X37628Y-26919D01*
X37610Y-26953D01*
X37591Y-26970D01*
X37553Y-26987D01*
X37516Y-26987D01*
X37478Y-26970D01*
X37460Y-26953D01*
X37441Y-26919D01*
X37441Y-26801D01*
X36624Y-23401D02*
X37018Y-23401D01*
X37018Y-23485D01*
X36999Y-23536D01*
X36962Y-23570D01*
X36924Y-23587D01*
X36849Y-23604D01*
X36793Y-23604D01*
X36718Y-23587D01*
X36681Y-23570D01*
X36643Y-23536D01*
X36624Y-23485D01*
X36624Y-23401D01*
X36831Y-23755D02*
X36831Y-23874D01*
X36624Y-23924D02*
X36624Y-23755D01*
X37018Y-23755D01*
X37018Y-23924D01*
X36643Y-24059D02*
X36624Y-24110D01*
X36624Y-24194D01*
X36643Y-24228D01*
X36662Y-24245D01*
X36699Y-24262D01*
X36737Y-24262D01*
X36774Y-24245D01*
X36793Y-24228D01*
X36812Y-24194D01*
X36831Y-24127D01*
X36849Y-24093D01*
X36868Y-24076D01*
X36906Y-24059D01*
X36943Y-24059D01*
X36981Y-24076D01*
X36999Y-24093D01*
X37018Y-24127D01*
X37018Y-24211D01*
X36999Y-24262D01*
X36624Y-24413D02*
X37018Y-24413D01*
X36999Y-24768D02*
X37018Y-24734D01*
X37018Y-24683D01*
X36999Y-24633D01*
X36962Y-24599D01*
X36924Y-24582D01*
X36849Y-24565D01*
X36793Y-24565D01*
X36718Y-24582D01*
X36681Y-24599D01*
X36643Y-24633D01*
X36624Y-24683D01*
X36624Y-24717D01*
X36643Y-24768D01*
X36662Y-24785D01*
X36793Y-24785D01*
X36793Y-24717D01*
X36624Y-24937D02*
X37018Y-24937D01*
X36624Y-25139D01*
X37018Y-25139D01*
X36831Y-25696D02*
X36812Y-25746D01*
X36793Y-25763D01*
X36756Y-25780D01*
X36699Y-25780D01*
X36662Y-25763D01*
X36643Y-25746D01*
X36624Y-25713D01*
X36624Y-25578D01*
X37018Y-25578D01*
X37018Y-25696D01*
X36999Y-25730D01*
X36981Y-25746D01*
X36943Y-25763D01*
X36906Y-25763D01*
X36868Y-25746D01*
X36849Y-25730D01*
X36831Y-25696D01*
X36831Y-25578D01*
X36812Y-26000D02*
X36624Y-26000D01*
X37018Y-25881D02*
X36812Y-26000D01*
X37018Y-26118D01*
X36643Y-26489D02*
X36624Y-26539D01*
X36624Y-26624D01*
X36643Y-26658D01*
X36662Y-26674D01*
X36699Y-26691D01*
X36737Y-26691D01*
X36774Y-26674D01*
X36793Y-26658D01*
X36812Y-26624D01*
X36831Y-26556D01*
X36849Y-26523D01*
X36868Y-26506D01*
X36906Y-26489D01*
X36943Y-26489D01*
X36981Y-26506D01*
X36999Y-26523D01*
X37018Y-26556D01*
X37018Y-26641D01*
X36999Y-26691D01*
X37018Y-26843D02*
X36699Y-26843D01*
X36662Y-26860D01*
X36643Y-26877D01*
X36624Y-26911D01*
X36624Y-26978D01*
X36643Y-27012D01*
X36662Y-27029D01*
X36699Y-27046D01*
X37018Y-27046D01*
X36831Y-27332D02*
X36831Y-27214D01*
X36624Y-27214D02*
X37018Y-27214D01*
X37018Y-27383D01*
G54D12*
X35347Y-29315D02*
X35898Y-28803D01*
X32355Y-29315D02*
X31804Y-28803D01*
X35347Y-29315D02*
G75*
G02X32355Y-29315I-1496J1496D01*
G74*
G01*
X35898Y-28803D02*
G75*
G02X36489Y-29393I0J-590D01*
G74*
G01*
X35229Y-33803D02*
X36489Y-32543D01*
X36489Y-32543D02*
X36489Y-29393D01*
X31213Y-32543D02*
X32473Y-33803D01*
X31213Y-29393D02*
G75*
G02X31804Y-28803I590J0D01*
G74*
G01*
X31213Y-32543D02*
X31213Y-29393D01*
X35229Y-33803D02*
X32473Y-33803D01*
X36213Y-31165D02*
G75*
G03X36213Y-31165I-2362J0D01*
G74*
G01*
X34107Y-35485D02*
X34107Y-36087D01*
X34107Y-36087D02*
X33595Y-36087D01*
X33595Y-36087D02*
X33595Y-35485D01*
X35780Y-35485D02*
X35780Y-34445D01*
X35780Y-34445D02*
X31922Y-34445D01*
X31922Y-34445D02*
X31922Y-35485D01*
X31922Y-35485D02*
X35780Y-35485D01*
X24094Y-35314D02*
X23543Y-35826D01*
X27086Y-35314D02*
X27637Y-35826D01*
X24094Y-35314D02*
G75*
G02X27086Y-35314I1496J-1496D01*
G74*
G01*
X23543Y-35826D02*
G75*
G02X22952Y-35236I0J590D01*
G74*
G01*
X24212Y-30826D02*
X22952Y-32086D01*
X22952Y-32086D02*
X22952Y-35236D01*
X28228Y-32086D02*
X26968Y-30826D01*
X28228Y-35236D02*
G75*
G02X27637Y-35826I-590J0D01*
G74*
G01*
X28228Y-32086D02*
X28228Y-35236D01*
X24212Y-30826D02*
X26968Y-30826D01*
X27953Y-33464D02*
G75*
G03X27953Y-33464I-2362J0D01*
G74*
G01*
X26122Y-29007D02*
X26122Y-28405D01*
X26122Y-28405D02*
X26633Y-28405D01*
X26633Y-28405D02*
X26633Y-29007D01*
X24448Y-29007D02*
X24448Y-30047D01*
X24448Y-30047D02*
X28307Y-30047D01*
X28307Y-30047D02*
X28307Y-29007D01*
X28307Y-29007D02*
X24448Y-29007D01*
X26122Y-20346D02*
X26122Y-19744D01*
X26122Y-19744D02*
X26633Y-19744D01*
X26633Y-19744D02*
X26633Y-20346D01*
X24448Y-20346D02*
X24448Y-21385D01*
X24448Y-21385D02*
X28307Y-21385D01*
X28307Y-21385D02*
X28307Y-20346D01*
X28307Y-20346D02*
X24448Y-20346D01*
X24094Y-26653D02*
X23543Y-27165D01*
X27086Y-26653D02*
X27637Y-27165D01*
X24094Y-26653D02*
G75*
G02X27086Y-26653I1496J-1496D01*
G74*
G01*
X23543Y-27165D02*
G75*
G02X22952Y-26574I0J590D01*
G74*
G01*
X24212Y-22165D02*
X22952Y-23425D01*
X22952Y-23425D02*
X22952Y-26574D01*
X28228Y-23425D02*
X26968Y-22165D01*
X28228Y-26574D02*
G75*
G02X27637Y-27165I-590J0D01*
G74*
G01*
X28228Y-23425D02*
X28228Y-26574D01*
X24212Y-22165D02*
X26968Y-22165D01*
X27953Y-24803D02*
G75*
G03X27953Y-24803I-2362J0D01*
G74*
G01*
X34107Y-26823D02*
X34107Y-27426D01*
X34107Y-27426D02*
X33595Y-27426D01*
X33595Y-27426D02*
X33595Y-26823D01*
X35780Y-26823D02*
X35780Y-25784D01*
X35780Y-25784D02*
X31922Y-25784D01*
X31922Y-25784D02*
X31922Y-26823D01*
X31922Y-26823D02*
X35780Y-26823D01*
X35347Y-20653D02*
X35898Y-20141D01*
X32355Y-20653D02*
X31804Y-20141D01*
X35347Y-20653D02*
G75*
G02X32355Y-20653I-1496J1496D01*
G74*
G01*
X35898Y-20141D02*
G75*
G02X36489Y-20732I0J-590D01*
G74*
G01*
X35229Y-25141D02*
X36489Y-23882D01*
X36489Y-23882D02*
X36489Y-20732D01*
X31213Y-23882D02*
X32473Y-25141D01*
X31213Y-20732D02*
G75*
G02X31804Y-20141I590J0D01*
G74*
G01*
X31213Y-23882D02*
X31213Y-20732D01*
X35229Y-25141D02*
X32473Y-25141D01*
X36213Y-22504D02*
G75*
G03X36213Y-22504I-2362J0D01*
G74*
G01*
G54D13*
X34322Y-28062D02*
X34236Y-28091D01*
X34208Y-28119D01*
X34179Y-28176D01*
X34179Y-28262D01*
X34208Y-28319D01*
X34236Y-28348D01*
X34294Y-28376D01*
X34522Y-28376D01*
X34522Y-27776D01*
X34322Y-27776D01*
X34265Y-27805D01*
X34236Y-27833D01*
X34208Y-27891D01*
X34208Y-27948D01*
X34236Y-28005D01*
X34265Y-28033D01*
X34322Y-28062D01*
X34522Y-28062D01*
X34008Y-27776D02*
X33665Y-27776D01*
X33836Y-28376D02*
X33836Y-27776D01*
X33151Y-28376D02*
X33494Y-28376D01*
X33322Y-28376D02*
X33322Y-27776D01*
X33379Y-27862D01*
X33436Y-27919D01*
X33494Y-27948D01*
X35108Y-34579D02*
X35136Y-34608D01*
X35222Y-34636D01*
X35279Y-34636D01*
X35365Y-34608D01*
X35422Y-34550D01*
X35451Y-34493D01*
X35479Y-34379D01*
X35479Y-34293D01*
X35451Y-34179D01*
X35422Y-34122D01*
X35365Y-34065D01*
X35279Y-34036D01*
X35222Y-34036D01*
X35136Y-34065D01*
X35108Y-34093D01*
X34508Y-34636D02*
X34708Y-34350D01*
X34851Y-34636D02*
X34851Y-34036D01*
X34622Y-34036D01*
X34565Y-34065D01*
X34536Y-34093D01*
X34508Y-34150D01*
X34508Y-34236D01*
X34536Y-34293D01*
X34565Y-34322D01*
X34622Y-34350D01*
X34851Y-34350D01*
X33936Y-34636D02*
X34279Y-34636D01*
X34108Y-34636D02*
X34108Y-34036D01*
X34165Y-34122D01*
X34222Y-34179D01*
X34279Y-34208D01*
X33708Y-34093D02*
X33679Y-34065D01*
X33622Y-34036D01*
X33479Y-34036D01*
X33422Y-34065D01*
X33394Y-34093D01*
X33365Y-34150D01*
X33365Y-34208D01*
X33394Y-34293D01*
X33736Y-34636D01*
X33365Y-34636D01*
X33136Y-34093D02*
X33108Y-34065D01*
X33051Y-34036D01*
X32908Y-34036D01*
X32851Y-34065D01*
X32822Y-34093D01*
X32794Y-34150D01*
X32794Y-34208D01*
X32822Y-34293D01*
X33165Y-34636D01*
X32794Y-34636D01*
X32422Y-34036D02*
X32365Y-34036D01*
X32308Y-34065D01*
X32279Y-34093D01*
X32251Y-34150D01*
X32222Y-34265D01*
X32222Y-34408D01*
X32251Y-34522D01*
X32279Y-34579D01*
X32308Y-34608D01*
X32365Y-34636D01*
X32422Y-34636D01*
X32479Y-34608D01*
X32508Y-34579D01*
X32536Y-34522D01*
X32565Y-34408D01*
X32565Y-34265D01*
X32536Y-34150D01*
X32508Y-34093D01*
X32479Y-34065D01*
X32422Y-34036D01*
G54D12*
X34376Y-35161D02*
X34319Y-35180D01*
X34226Y-35180D01*
X34188Y-35161D01*
X34169Y-35143D01*
X34151Y-35105D01*
X34151Y-35068D01*
X34169Y-35030D01*
X34188Y-35012D01*
X34226Y-34993D01*
X34301Y-34974D01*
X34338Y-34955D01*
X34357Y-34937D01*
X34376Y-34899D01*
X34376Y-34862D01*
X34357Y-34824D01*
X34338Y-34805D01*
X34301Y-34787D01*
X34207Y-34787D01*
X34151Y-34805D01*
X34019Y-34787D02*
X33926Y-35180D01*
X33851Y-34899D01*
X33776Y-35180D01*
X33682Y-34787D01*
X33326Y-35180D02*
X33551Y-35180D01*
X33438Y-35180D02*
X33438Y-34787D01*
X33476Y-34843D01*
X33513Y-34880D01*
X33551Y-34899D01*
G54D13*
X26061Y-36424D02*
X25976Y-36453D01*
X25947Y-36481D01*
X25919Y-36538D01*
X25919Y-36624D01*
X25947Y-36681D01*
X25976Y-36710D01*
X26033Y-36738D01*
X26261Y-36738D01*
X26261Y-36138D01*
X26061Y-36138D01*
X26004Y-36167D01*
X25976Y-36196D01*
X25947Y-36253D01*
X25947Y-36310D01*
X25976Y-36367D01*
X26004Y-36396D01*
X26061Y-36424D01*
X26261Y-36424D01*
X25747Y-36138D02*
X25404Y-36138D01*
X25576Y-36738D02*
X25576Y-36138D01*
X24890Y-36738D02*
X25233Y-36738D01*
X25061Y-36738D02*
X25061Y-36138D01*
X25119Y-36224D01*
X25176Y-36281D01*
X25233Y-36310D01*
X26847Y-30421D02*
X26876Y-30450D01*
X26961Y-30479D01*
X27019Y-30479D01*
X27104Y-30450D01*
X27161Y-30393D01*
X27190Y-30336D01*
X27219Y-30221D01*
X27219Y-30136D01*
X27190Y-30021D01*
X27161Y-29964D01*
X27104Y-29907D01*
X27019Y-29879D01*
X26961Y-29879D01*
X26876Y-29907D01*
X26847Y-29936D01*
X26247Y-30479D02*
X26447Y-30193D01*
X26590Y-30479D02*
X26590Y-29879D01*
X26361Y-29879D01*
X26304Y-29907D01*
X26276Y-29936D01*
X26247Y-29993D01*
X26247Y-30079D01*
X26276Y-30136D01*
X26304Y-30164D01*
X26361Y-30193D01*
X26590Y-30193D01*
X25676Y-30479D02*
X26019Y-30479D01*
X25847Y-30479D02*
X25847Y-29879D01*
X25904Y-29964D01*
X25961Y-30021D01*
X26019Y-30050D01*
X25447Y-29936D02*
X25419Y-29907D01*
X25361Y-29879D01*
X25219Y-29879D01*
X25161Y-29907D01*
X25133Y-29936D01*
X25104Y-29993D01*
X25104Y-30050D01*
X25133Y-30136D01*
X25476Y-30479D01*
X25104Y-30479D01*
X24876Y-29936D02*
X24847Y-29907D01*
X24790Y-29879D01*
X24647Y-29879D01*
X24590Y-29907D01*
X24561Y-29936D01*
X24533Y-29993D01*
X24533Y-30050D01*
X24561Y-30136D01*
X24904Y-30479D01*
X24533Y-30479D01*
X24161Y-29879D02*
X24104Y-29879D01*
X24047Y-29907D01*
X24019Y-29936D01*
X23990Y-29993D01*
X23961Y-30107D01*
X23961Y-30250D01*
X23990Y-30364D01*
X24019Y-30421D01*
X24047Y-30450D01*
X24104Y-30479D01*
X24161Y-30479D01*
X24219Y-30450D01*
X24247Y-30421D01*
X24276Y-30364D01*
X24304Y-30250D01*
X24304Y-30107D01*
X24276Y-29993D01*
X24247Y-29936D01*
X24219Y-29907D01*
X24161Y-29879D01*
G54D12*
X26843Y-29687D02*
X26787Y-29706D01*
X26693Y-29706D01*
X26656Y-29687D01*
X26637Y-29669D01*
X26618Y-29631D01*
X26618Y-29594D01*
X26637Y-29556D01*
X26656Y-29537D01*
X26693Y-29519D01*
X26768Y-29500D01*
X26806Y-29481D01*
X26825Y-29462D01*
X26843Y-29425D01*
X26843Y-29387D01*
X26825Y-29350D01*
X26806Y-29331D01*
X26768Y-29312D01*
X26675Y-29312D01*
X26618Y-29331D01*
X26487Y-29312D02*
X26393Y-29706D01*
X26318Y-29425D01*
X26243Y-29706D01*
X26150Y-29312D01*
X25793Y-29706D02*
X26018Y-29706D01*
X25906Y-29706D02*
X25906Y-29312D01*
X25943Y-29369D01*
X25981Y-29406D01*
X26018Y-29425D01*
X26843Y-21026D02*
X26787Y-21045D01*
X26693Y-21045D01*
X26656Y-21026D01*
X26637Y-21007D01*
X26618Y-20970D01*
X26618Y-20932D01*
X26637Y-20895D01*
X26656Y-20876D01*
X26693Y-20857D01*
X26768Y-20838D01*
X26806Y-20820D01*
X26825Y-20801D01*
X26843Y-20763D01*
X26843Y-20726D01*
X26825Y-20688D01*
X26806Y-20670D01*
X26768Y-20651D01*
X26675Y-20651D01*
X26618Y-20670D01*
X26487Y-20651D02*
X26393Y-21045D01*
X26318Y-20763D01*
X26243Y-21045D01*
X26150Y-20651D01*
X25793Y-21045D02*
X26018Y-21045D01*
X25906Y-21045D02*
X25906Y-20651D01*
X25943Y-20707D01*
X25981Y-20745D01*
X26018Y-20763D01*
G54D13*
X26061Y-27763D02*
X25976Y-27791D01*
X25947Y-27820D01*
X25919Y-27877D01*
X25919Y-27963D01*
X25947Y-28020D01*
X25976Y-28048D01*
X26033Y-28077D01*
X26261Y-28077D01*
X26261Y-27477D01*
X26061Y-27477D01*
X26004Y-27506D01*
X25976Y-27534D01*
X25947Y-27591D01*
X25947Y-27648D01*
X25976Y-27706D01*
X26004Y-27734D01*
X26061Y-27763D01*
X26261Y-27763D01*
X25747Y-27477D02*
X25404Y-27477D01*
X25576Y-28077D02*
X25576Y-27477D01*
X24890Y-28077D02*
X25233Y-28077D01*
X25061Y-28077D02*
X25061Y-27477D01*
X25119Y-27563D01*
X25176Y-27620D01*
X25233Y-27648D01*
X26847Y-21760D02*
X26876Y-21789D01*
X26961Y-21817D01*
X27019Y-21817D01*
X27104Y-21789D01*
X27161Y-21731D01*
X27190Y-21674D01*
X27219Y-21560D01*
X27219Y-21474D01*
X27190Y-21360D01*
X27161Y-21303D01*
X27104Y-21246D01*
X27019Y-21217D01*
X26961Y-21217D01*
X26876Y-21246D01*
X26847Y-21274D01*
X26247Y-21817D02*
X26447Y-21531D01*
X26590Y-21817D02*
X26590Y-21217D01*
X26361Y-21217D01*
X26304Y-21246D01*
X26276Y-21274D01*
X26247Y-21331D01*
X26247Y-21417D01*
X26276Y-21474D01*
X26304Y-21503D01*
X26361Y-21531D01*
X26590Y-21531D01*
X25676Y-21817D02*
X26019Y-21817D01*
X25847Y-21817D02*
X25847Y-21217D01*
X25904Y-21303D01*
X25961Y-21360D01*
X26019Y-21389D01*
X25447Y-21274D02*
X25419Y-21246D01*
X25361Y-21217D01*
X25219Y-21217D01*
X25161Y-21246D01*
X25133Y-21274D01*
X25104Y-21331D01*
X25104Y-21389D01*
X25133Y-21474D01*
X25476Y-21817D01*
X25104Y-21817D01*
X24876Y-21274D02*
X24847Y-21246D01*
X24790Y-21217D01*
X24647Y-21217D01*
X24590Y-21246D01*
X24561Y-21274D01*
X24533Y-21331D01*
X24533Y-21389D01*
X24561Y-21474D01*
X24904Y-21817D01*
X24533Y-21817D01*
X24161Y-21217D02*
X24104Y-21217D01*
X24047Y-21246D01*
X24019Y-21274D01*
X23990Y-21331D01*
X23961Y-21446D01*
X23961Y-21589D01*
X23990Y-21703D01*
X24019Y-21760D01*
X24047Y-21789D01*
X24104Y-21817D01*
X24161Y-21817D01*
X24219Y-21789D01*
X24247Y-21760D01*
X24276Y-21703D01*
X24304Y-21589D01*
X24304Y-21446D01*
X24276Y-21331D01*
X24247Y-21274D01*
X24219Y-21246D01*
X24161Y-21217D01*
G54D12*
X34376Y-26500D02*
X34319Y-26519D01*
X34226Y-26519D01*
X34188Y-26500D01*
X34169Y-26481D01*
X34151Y-26444D01*
X34151Y-26406D01*
X34169Y-26369D01*
X34188Y-26350D01*
X34226Y-26331D01*
X34301Y-26313D01*
X34338Y-26294D01*
X34357Y-26275D01*
X34376Y-26238D01*
X34376Y-26200D01*
X34357Y-26163D01*
X34338Y-26144D01*
X34301Y-26125D01*
X34207Y-26125D01*
X34151Y-26144D01*
X34019Y-26125D02*
X33926Y-26519D01*
X33851Y-26238D01*
X33776Y-26519D01*
X33682Y-26125D01*
X33326Y-26519D02*
X33551Y-26519D01*
X33438Y-26519D02*
X33438Y-26125D01*
X33476Y-26181D01*
X33513Y-26219D01*
X33551Y-26238D01*
G54D13*
X34322Y-19401D02*
X34236Y-19429D01*
X34208Y-19458D01*
X34179Y-19515D01*
X34179Y-19601D01*
X34208Y-19658D01*
X34236Y-19686D01*
X34294Y-19715D01*
X34522Y-19715D01*
X34522Y-19115D01*
X34322Y-19115D01*
X34265Y-19143D01*
X34236Y-19172D01*
X34208Y-19229D01*
X34208Y-19286D01*
X34236Y-19343D01*
X34265Y-19372D01*
X34322Y-19401D01*
X34522Y-19401D01*
X34008Y-19115D02*
X33665Y-19115D01*
X33836Y-19715D02*
X33836Y-19115D01*
X33151Y-19715D02*
X33494Y-19715D01*
X33322Y-19715D02*
X33322Y-19115D01*
X33379Y-19201D01*
X33436Y-19258D01*
X33494Y-19286D01*
X35108Y-25918D02*
X35136Y-25946D01*
X35222Y-25975D01*
X35279Y-25975D01*
X35365Y-25946D01*
X35422Y-25889D01*
X35451Y-25832D01*
X35479Y-25718D01*
X35479Y-25632D01*
X35451Y-25518D01*
X35422Y-25460D01*
X35365Y-25403D01*
X35279Y-25375D01*
X35222Y-25375D01*
X35136Y-25403D01*
X35108Y-25432D01*
X34508Y-25975D02*
X34708Y-25689D01*
X34851Y-25975D02*
X34851Y-25375D01*
X34622Y-25375D01*
X34565Y-25403D01*
X34536Y-25432D01*
X34508Y-25489D01*
X34508Y-25575D01*
X34536Y-25632D01*
X34565Y-25660D01*
X34622Y-25689D01*
X34851Y-25689D01*
X33936Y-25975D02*
X34279Y-25975D01*
X34108Y-25975D02*
X34108Y-25375D01*
X34165Y-25460D01*
X34222Y-25518D01*
X34279Y-25546D01*
X33708Y-25432D02*
X33679Y-25403D01*
X33622Y-25375D01*
X33479Y-25375D01*
X33422Y-25403D01*
X33394Y-25432D01*
X33365Y-25489D01*
X33365Y-25546D01*
X33394Y-25632D01*
X33736Y-25975D01*
X33365Y-25975D01*
X33136Y-25432D02*
X33108Y-25403D01*
X33051Y-25375D01*
X32908Y-25375D01*
X32851Y-25403D01*
X32822Y-25432D01*
X32794Y-25489D01*
X32794Y-25546D01*
X32822Y-25632D01*
X33165Y-25975D01*
X32794Y-25975D01*
X32422Y-25375D02*
X32365Y-25375D01*
X32308Y-25403D01*
X32279Y-25432D01*
X32251Y-25489D01*
X32222Y-25603D01*
X32222Y-25746D01*
X32251Y-25860D01*
X32279Y-25918D01*
X32308Y-25946D01*
X32365Y-25975D01*
X32422Y-25975D01*
X32479Y-25946D01*
X32508Y-25918D01*
X32536Y-25860D01*
X32565Y-25746D01*
X32565Y-25603D01*
X32536Y-25489D01*
X32508Y-25432D01*
X32479Y-25403D01*
X32422Y-25375D01*
M02*
